REM DIRINDEX 1\6,1\2\7,1\2\8,1\2\9,1\3\10,1\3\11,1\4\12,1\4\13,1\4\14,1\5\15,1\5\16,1\5\17
REM DIRNAME folder01,folder02,folder03,folder04,folder05,folder06,folder07,folder08,folder09,folder10,folder11,folder12,folder13,folder14,folder15,folder16,folder17
TITLE ""
FILE "3Q_j_1013-1028.mp3" MP3
  TRACK 01 AUDIO
    TITLE "12:cjc041_0338"
    INDEX 01 00:00:00
  TRACK 02 AUDIO
    TITLE "0:"
    INDEX 01 00:01:42
  TRACK 03 AUDIO
    TITLE "13:cjc041_0339"
    INDEX 01 00:02:20
  TRACK 04 AUDIO
    TITLE "0:"
    INDEX 01 00:05:63
  TRACK 05 AUDIO
    TITLE "14:cjc041_0340"
    INDEX 01 00:06:41
  TRACK 06 AUDIO
    TITLE "0:"
    INDEX 01 00:10:02
  TRACK 07 AUDIO
    TITLE "12:cjc041_0341"
    INDEX 01 00:10:59
  TRACK 08 AUDIO
    TITLE "0:"
    INDEX 01 00:12:16
  TRACK 09 AUDIO
    TITLE "13:cjc041_0342"
    INDEX 01 00:12:67
  TRACK 10 AUDIO
    TITLE "0:"
    INDEX 01 00:14:33
  TRACK 11 AUDIO
    TITLE "14:cjc041_0343"
    INDEX 01 00:15:05
  TRACK 12 AUDIO
    TITLE "0:"
    INDEX 01 00:18:19
  TRACK 13 AUDIO
    TITLE "12:cjc041_0344"
    INDEX 01 00:18:70
  TRACK 14 AUDIO
    TITLE "0:"
    INDEX 01 00:20:30
  TRACK 15 AUDIO
    TITLE "13:cjc041_0345"
    INDEX 01 00:21:11
  TRACK 16 AUDIO
    TITLE "0:"
    INDEX 01 00:22:25
  TRACK 17 AUDIO
    TITLE "14:cjc041_0346"
    INDEX 01 00:23:03
  TRACK 18 AUDIO
    TITLE "0:"
    INDEX 01 00:26:42
  TRACK 19 AUDIO
    TITLE "12:cjc041_0347"
    INDEX 01 00:27:20
  TRACK 20 AUDIO
    TITLE "0:"
    INDEX 01 00:29:42
  TRACK 21 AUDIO
    TITLE "13:cjc041_0348"
    INDEX 01 00:30:26
  TRACK 22 AUDIO
    TITLE "0:"
    INDEX 01 00:32:39
  TRACK 23 AUDIO
    TITLE "14:cjc041_0349"
    INDEX 01 00:33:15
  TRACK 24 AUDIO
    TITLE "0:"
    INDEX 01 00:36:52
  TRACK 25 AUDIO
    TITLE "12:cjc041_0350"
    INDEX 01 00:37:32
  TRACK 26 AUDIO
    TITLE "0:"
    INDEX 01 00:40:21
  TRACK 27 AUDIO
    TITLE "13:cjc041_0351"
    INDEX 01 00:41:04
  TRACK 28 AUDIO
    TITLE "0:"
    INDEX 01 00:43:66
  TRACK 29 AUDIO
    TITLE "14:cjc041_0352"
    INDEX 01 00:44:44
  TRACK 30 AUDIO
    TITLE "0:"
    INDEX 01 00:48:16
  TRACK 31 AUDIO
    TITLE "12:cjc041_0353"
    INDEX 01 00:48:71
  TRACK 32 AUDIO
    TITLE "0:"
    INDEX 01 00:51:28
  TRACK 33 AUDIO
    TITLE "13:cjc041_0354"
    INDEX 01 00:52:10
  TRACK 34 AUDIO
    TITLE "0:"
    INDEX 01 00:55:20
  TRACK 35 AUDIO
    TITLE "14:cjc041_0355"
    INDEX 01 00:56:02
  TRACK 36 AUDIO
    TITLE "0:"
    INDEX 01 00:58:71
  TRACK 37 AUDIO
    TITLE "12:cjc041_0356"
    INDEX 01 00:59:49
  TRACK 38 AUDIO
    TITLE "0:"
    INDEX 01 01:01:07
  TRACK 39 AUDIO
    TITLE "13:cjc041_0357"
    INDEX 01 01:01:58
  TRACK 40 AUDIO
    TITLE "0:"
    INDEX 01 01:03:00
  TRACK 41 AUDIO
    TITLE "14:cjc041_0358"
    INDEX 01 01:03:53
  TRACK 42 AUDIO
    TITLE "0:"
    INDEX 01 01:07:00
  TRACK 43 AUDIO
    TITLE "12:cjc041_0359"
    INDEX 01 01:07:57
  TRACK 44 AUDIO
    TITLE "0:"
    INDEX 01 01:09:12
  TRACK 45 AUDIO
    TITLE "13:cjc041_0360"
    INDEX 01 01:09:61
  TRACK 46 AUDIO
    TITLE "0:"
    INDEX 01 01:12:07
  TRACK 47 AUDIO
    TITLE "14:cjc041_0361"
    INDEX 01 01:12:60
  TRACK 48 AUDIO
    TITLE "0:"
    INDEX 01 01:15:68
  TRACK 49 AUDIO
    TITLE "12:cjc041_0362"
    INDEX 01 01:16:48
  TRACK 50 AUDIO
    TITLE "0:"
    INDEX 01 01:18:62
  TRACK 51 AUDIO
    TITLE "13:cjc041_0363"
    INDEX 01 01:19:40
  TRACK 52 AUDIO
    TITLE "0:"
    INDEX 01 01:21:49
  TRACK 53 AUDIO
    TITLE "14:cjc041_0364"
    INDEX 01 01:22:29
  TRACK 54 AUDIO
    TITLE "0:"
    INDEX 01 01:24:71
  TRACK 55 AUDIO
    TITLE "12:cjc041_0365"
    INDEX 01 01:25:57
  TRACK 56 AUDIO
    TITLE "0:"
    INDEX 01 01:27:38
  TRACK 57 AUDIO
    TITLE "13:cjc041_0366"
    INDEX 01 01:28:18
  TRACK 58 AUDIO
    TITLE "0:"
    INDEX 01 01:29:66
  TRACK 59 AUDIO
    TITLE "14:cjc041_0367"
    INDEX 01 01:30:48
  TRACK 60 AUDIO
    TITLE "0:"
    INDEX 01 01:35:27
  TRACK 61 AUDIO
    TITLE "12:cjc041_0368"
    INDEX 01 01:36:05
  TRACK 62 AUDIO
    TITLE "0:"
    INDEX 01 01:37:42
  TRACK 63 AUDIO
    TITLE "13:cjc041_0369"
    INDEX 01 01:38:18
  TRACK 64 AUDIO
    TITLE "0:"
    INDEX 01 01:42:31
  TRACK 65 AUDIO
    TITLE "14:cjc041_0370"
    INDEX 01 01:43:11
  TRACK 66 AUDIO
    TITLE "0:"
    INDEX 01 01:47:07
  TRACK 67 AUDIO
    TITLE "12:cjc041_0371"
    INDEX 01 01:47:62
  TRACK 68 AUDIO
    TITLE "0:"
    INDEX 01 01:49:14
  TRACK 69 AUDIO
    TITLE "13:cjc041_0372"
    INDEX 01 01:49:67
  TRACK 70 AUDIO
    TITLE "0:"
    INDEX 01 01:51:56
  TRACK 71 AUDIO
    TITLE "14:cjc041_0373"
    INDEX 01 01:52:38
  TRACK 72 AUDIO
    TITLE "0:"
    INDEX 01 01:55:54
  TRACK 73 AUDIO
    TITLE "12:cjc041_0374"
    INDEX 01 01:56:45
  TRACK 74 AUDIO
    TITLE "0:"
    INDEX 01 01:58:64
  TRACK 75 AUDIO
    TITLE "13:cjc041_0375"
    INDEX 01 01:59:46
  TRACK 76 AUDIO
    TITLE "0:"
    INDEX 01 02:02:26
  TRACK 77 AUDIO
    TITLE "14:cjc041_0376"
    INDEX 01 02:03:02
  TRACK 78 AUDIO
    TITLE "0:"
    INDEX 01 02:06:16
  TRACK 79 AUDIO
    TITLE "12:cjc041_0377"
    INDEX 01 02:06:71
  TRACK 80 AUDIO
    TITLE "0:"
    INDEX 01 02:08:35
  TRACK 81 AUDIO
    TITLE "13:cjc041_0378"
    INDEX 01 02:09:15
  TRACK 82 AUDIO
    TITLE "0:"
    INDEX 01 02:10:67
  TRACK 83 AUDIO
    TITLE "14:cjc041_0379"
    INDEX 01 02:11:45
  TRACK 84 AUDIO
    TITLE "0:"
    INDEX 01 02:14:57
  TRACK 85 AUDIO
    TITLE "12:cjc041_0380"
    INDEX 01 02:15:39
  TRACK 86 AUDIO
    TITLE "0:"
    INDEX 01 02:16:70
  TRACK 87 AUDIO
    TITLE "13:cjc041_0381"
    INDEX 01 02:17:44
  TRACK 88 AUDIO
    TITLE "0:"
    INDEX 01 02:19:17
  TRACK 89 AUDIO
    TITLE "14:cjc041_0382"
    INDEX 01 02:19:66
  TRACK 90 AUDIO
    TITLE "0:"
    INDEX 01 02:24:12
  TRACK 91 AUDIO
    TITLE "12:cjc041_0383"
    INDEX 01 02:24:67
  TRACK 92 AUDIO
    TITLE "0:"
    INDEX 01 02:26:42
  TRACK 93 AUDIO
    TITLE "13:cjc041_0384"
    INDEX 01 02:27:18
  TRACK 94 AUDIO
    TITLE "0:"
    INDEX 01 02:28:61
  TRACK 95 AUDIO
    TITLE "14:cjc041_0385"
    INDEX 01 02:29:35
  TRACK 96 AUDIO
    TITLE "0:"
    INDEX 01 02:33:54
